<?xml version="1.0" encoding="UTF-8" standalone="no"?>
<!DOCTYPE svg PUBLIC "-//W3C//DTD SVG 1.1//EN"
 "http://www.w3.org/Graphics/SVG/1.1/DTD/svg11.dtd">
<!-- Generated by graphviz version 12.1.1 (20240910.0053)
 -->
<!-- Title: Graph Legend Pages: 1 -->
<svg width="511pt" height="164pt"
 viewBox="0.00 0.00 510.69 164.00" xmlns="http://www.w3.org/2000/svg" xmlns:xlink="http://www.w3.org/1999/xlink">
<g id="graph0" class="graph" transform="scale(1 1) rotate(0) translate(4 160)">
<title>Graph Legend</title>
<polygon fill="white" stroke="none" points="-4,4 -4,-160 506.69,-160 506.69,4 -4,4"/>
<!-- Node9 -->
<g id="node1" class="node">
<title>Node9</title>
<polygon fill="#bfbfbf" stroke="black" points="293.47,-20 238.56,-20 238.56,0 293.47,0 293.47,-20"/>
<text text-anchor="middle" x="266.01" y="-7" font-family="Helvetica,sans-Serif" font-size="10.00">Inherited</text>
</g>
<!-- Node10 -->
<g id="node2" class="node">
<title>Node10</title>
<polygon fill="none" stroke="black" points="66.03,-88 0,-88 0,-68 66.03,-68 66.03,-88"/>
<text text-anchor="middle" x="33.01" y="-75" font-family="Helvetica,sans-Serif" font-size="10.00">PublicBase</text>
</g>
<!-- Node10&#45;&gt;Node9 -->
<g id="edge1" class="edge">
<title>Node10&#45;&gt;Node9</title>
<path fill="none" stroke="midnightblue" d="M77.25,-64.47C124.61,-51.05 198.31,-30.18 238.16,-18.89"/>
<polygon fill="midnightblue" stroke="midnightblue" points="76.52,-61.04 67.85,-67.13 78.43,-67.77 76.52,-61.04"/>
</g>
<!-- Node11 -->
<g id="node3" class="node">
<title>Node11</title>
<polygon fill="none" stroke="red" points="63.53,-156 2.5,-156 2.5,-136 63.53,-136 63.53,-156"/>
<text text-anchor="middle" x="33.01" y="-143" font-family="Helvetica,sans-Serif" font-size="10.00">Truncated</text>
</g>
<!-- Node11&#45;&gt;Node10 -->
<g id="edge2" class="edge">
<title>Node11&#45;&gt;Node10</title>
<path fill="none" stroke="midnightblue" d="M33.01,-124.28C33.01,-112.27 33.01,-97.74 33.01,-88.44"/>
<polygon fill="midnightblue" stroke="midnightblue" points="29.51,-124.03 33.01,-134.03 36.51,-124.03 29.51,-124.03"/>
</g>
<!-- Node13 -->
<g id="node4" class="node">
<title>Node13</title>
<polygon fill="none" stroke="black" points="165.81,-88 84.22,-88 84.22,-68 165.81,-68 165.81,-88"/>
<text text-anchor="middle" x="125.01" y="-75" font-family="Helvetica,sans-Serif" font-size="10.00">ProtectedBase</text>
</g>
<!-- Node13&#45;&gt;Node9 -->
<g id="edge3" class="edge">
<title>Node13&#45;&gt;Node9</title>
<path fill="none" stroke="darkgreen" d="M155.41,-62.77C182.77,-49.97 222.2,-31.51 245.85,-20.44"/>
<polygon fill="darkgreen" stroke="darkgreen" points="154.16,-59.49 146.59,-66.9 157.13,-65.83 154.16,-59.49"/>
</g>
<!-- Node14 -->
<g id="node5" class="node">
<title>Node14</title>
<polygon fill="none" stroke="black" points="253.97,-88 184.06,-88 184.06,-68 253.97,-68 253.97,-88"/>
<text text-anchor="middle" x="219.01" y="-75" font-family="Helvetica,sans-Serif" font-size="10.00">PrivateBase</text>
</g>
<!-- Node14&#45;&gt;Node9 -->
<g id="edge4" class="edge">
<title>Node14&#45;&gt;Node9</title>
<path fill="none" stroke="#8b1a1a" d="M232.18,-58.52C241,-46.13 252.25,-30.33 259.29,-20.44"/>
<polygon fill="#8b1a1a" stroke="#8b1a1a" points="229.58,-56.13 226.63,-66.31 235.28,-60.2 229.58,-56.13"/>
</g>
<!-- Node15 -->
<g id="node6" class="node">
<title>Node15</title>
<polygon fill="none" stroke="#bfbfbf" points="355.93,-88 272.1,-88 272.1,-68 355.93,-68 355.93,-88"/>
<text text-anchor="middle" x="314.01" y="-75" font-family="Helvetica,sans-Serif" font-size="10.00">Undocumented</text>
</g>
<!-- Node15&#45;&gt;Node9 -->
<g id="edge5" class="edge">
<title>Node15&#45;&gt;Node9</title>
<path fill="none" stroke="midnightblue" d="M300.57,-58.52C291.56,-46.13 280.07,-30.33 272.88,-20.44"/>
<polygon fill="midnightblue" stroke="midnightblue" points="297.53,-60.29 306.25,-66.32 303.2,-56.17 297.53,-60.29"/>
</g>
<!-- Node16 -->
<g id="node7" class="node">
<title>Node16</title>
<polygon fill="none" stroke="black" points="445.81,-88 374.22,-88 374.22,-68 445.81,-68 445.81,-88"/>
<text text-anchor="middle" x="410.01" y="-75" font-family="Helvetica,sans-Serif" font-size="10.00">Templ&lt; int &gt;</text>
</g>
<!-- Node16&#45;&gt;Node9 -->
<g id="edge6" class="edge">
<title>Node16&#45;&gt;Node9</title>
<path fill="none" stroke="midnightblue" d="M378.97,-62.77C351.03,-49.97 310.76,-31.51 286.61,-20.44"/>
<polygon fill="midnightblue" stroke="midnightblue" points="377.46,-65.93 388.01,-66.91 380.37,-59.56 377.46,-65.93"/>
</g>
<!-- Node17 -->
<g id="node8" class="node">
<title>Node17</title>
<polygon fill="none" stroke="black" points="443.58,-156 376.45,-156 376.45,-136 443.58,-136 443.58,-156"/>
<text text-anchor="middle" x="410.01" y="-143" font-family="Helvetica,sans-Serif" font-size="10.00">Templ&lt; T &gt;</text>
</g>
<!-- Node17&#45;&gt;Node16 -->
<g id="edge7" class="edge">
<title>Node17&#45;&gt;Node16</title>
<path fill="none" stroke="orange" stroke-dasharray="5,2" d="M410.01,-124.28C410.01,-112.27 410.01,-97.74 410.01,-88.44"/>
<polygon fill="orange" stroke="orange" points="406.51,-124.03 410.01,-134.03 413.51,-124.03 406.51,-124.03"/>
<text text-anchor="middle" x="423.91" y="-109" font-family="Helvetica,sans-Serif" font-size="10.00">&lt; int &gt;</text>
</g>
<!-- Node18 -->
<g id="node9" class="node">
<title>Node18</title>
<polygon fill="none" stroke="black" points="502.69,-88 463.34,-88 463.34,-68 502.69,-68 502.69,-88"/>
<text text-anchor="middle" x="483.01" y="-75" font-family="Helvetica,sans-Serif" font-size="10.00">Used</text>
</g>
<!-- Node18&#45;&gt;Node9 -->
<g id="edge8" class="edge">
<title>Node18&#45;&gt;Node9</title>
<path fill="none" stroke="#9a32cd" stroke-dasharray="5,2" d="M452.43,-67.23C390.67,-48.05 328.82,-29.59 293.92,-19.25"/>
<polygon fill="#9a32cd" stroke="#9a32cd" points="451.11,-70.48 461.7,-70.11 453.19,-63.8 451.11,-70.48"/>
<text text-anchor="middle" x="423.03" y="-41" font-family="Helvetica,sans-Serif" font-size="10.00">m_usedClass</text>
</g>
</g>
</svg>
