<?xml version="1.0" encoding="UTF-8" standalone="no"?>
<!DOCTYPE svg PUBLIC "-//W3C//DTD SVG 1.1//EN"
 "http://www.w3.org/Graphics/SVG/1.1/DTD/svg11.dtd">
<!-- Generated by graphviz version 12.1.1 (20240910.0053)
 -->
<!-- Title: src/logger.cc Pages: 1 -->
<svg width="365pt" height="143pt"
 viewBox="0.00 0.00 365.12 143.00" xmlns="http://www.w3.org/2000/svg" xmlns:xlink="http://www.w3.org/1999/xlink">
<g id="graph0" class="graph" transform="scale(1 1) rotate(0) translate(4 139)">
<title>src/logger.cc</title>
<polygon fill="white" stroke="none" points="-4,4 -4,-139 361.12,-139 361.12,4 -4,4"/>
<!-- Node1 -->
<g id="node1" class="node">
<title>Node1</title>
<g id="a_node1"><a xlink:title=" ">
<polygon fill="#bfbfbf" stroke="black" points="145.83,-114.5 145.83,-134.5 218.51,-134.5 218.51,-114.5 145.83,-114.5"/>
<text text-anchor="middle" x="182.17" y="-121.5" font-family="Helvetica,sans-Serif" font-size="10.00">src/logger.cc</text>
</a>
</g>
</g>
<!-- Node2 -->
<g id="node2" class="node">
<title>Node2</title>
<g id="a_node2"><a xlink:href="logger_8hh.html" target="_top" xlink:title=" ">
<polygon fill="white" stroke="black" points="55.32,-57.5 55.32,-77.5 113.02,-77.5 113.02,-57.5 55.32,-57.5"/>
<text text-anchor="middle" x="84.17" y="-64.5" font-family="Helvetica,sans-Serif" font-size="10.00">logger.hh</text>
</a>
</g>
</g>
<!-- Node1&#45;&gt;Node2 -->
<g id="edge1" class="edge">
<title>Node1&#45;&gt;Node2</title>
<path fill="none" stroke="midnightblue" d="M165.55,-114.17C150.48,-105.72 128.03,-93.11 110.52,-83.29"/>
<polygon fill="midnightblue" stroke="midnightblue" points="112.63,-80.46 102.2,-78.62 109.21,-86.56 112.63,-80.46"/>
</g>
<!-- Node3 -->
<g id="node3" class="node">
<title>Node3</title>
<g id="a_node3"><a xlink:title=" ">
<polygon fill="white" stroke="#bfbfbf" points="0,-0.5 0,-20.5 54.34,-20.5 54.34,-0.5 0,-0.5"/>
<text text-anchor="middle" x="27.17" y="-7.5" font-family="Helvetica,sans-Serif" font-size="10.00">iostream</text>
</a>
</g>
</g>
<!-- Node1&#45;&gt;Node3 -->
<g id="edge4" class="edge">
<title>Node1&#45;&gt;Node3</title>
<path fill="none" stroke="midnightblue" d="M145.42,-120.53C114.8,-116.12 72.16,-105.17 46.17,-78 34.49,-65.79 29.91,-46.9 28.15,-32.37"/>
<polygon fill="midnightblue" stroke="midnightblue" points="31.65,-32.19 27.35,-22.51 24.67,-32.76 31.65,-32.19"/>
</g>
<!-- Node5 -->
<g id="node5" class="node">
<title>Node5</title>
<g id="a_node5"><a xlink:title=" ">
<polygon fill="white" stroke="#bfbfbf" points="131.11,-57.5 131.11,-77.5 173.23,-77.5 173.23,-57.5 131.11,-57.5"/>
<text text-anchor="middle" x="152.17" y="-64.5" font-family="Helvetica,sans-Serif" font-size="10.00">cstdio</text>
</a>
</g>
</g>
<!-- Node1&#45;&gt;Node5 -->
<g id="edge5" class="edge">
<title>Node1&#45;&gt;Node5</title>
<path fill="none" stroke="midnightblue" d="M177.22,-114.42C173.29,-107.22 167.66,-96.9 162.73,-87.86"/>
<polygon fill="midnightblue" stroke="midnightblue" points="165.82,-86.21 157.96,-79.11 159.67,-89.56 165.82,-86.21"/>
</g>
<!-- Node6 -->
<g id="node6" class="node">
<title>Node6</title>
<g id="a_node6"><a xlink:title=" ">
<polygon fill="white" stroke="#bfbfbf" points="191,-57.5 191,-77.5 235.34,-77.5 235.34,-57.5 191,-57.5"/>
<text text-anchor="middle" x="213.17" y="-64.5" font-family="Helvetica,sans-Serif" font-size="10.00">cerrno</text>
</a>
</g>
</g>
<!-- Node1&#45;&gt;Node6 -->
<g id="edge6" class="edge">
<title>Node1&#45;&gt;Node6</title>
<path fill="none" stroke="midnightblue" d="M187.29,-114.42C191.4,-107.14 197.3,-96.67 202.43,-87.57"/>
<polygon fill="midnightblue" stroke="midnightblue" points="205.34,-89.53 207.2,-79.1 199.24,-86.09 205.34,-89.53"/>
</g>
<!-- Node7 -->
<g id="node7" class="node">
<title>Node7</title>
<g id="a_node7"><a xlink:title=" ">
<polygon fill="white" stroke="#bfbfbf" points="253.45,-57.5 253.45,-77.5 298.9,-77.5 298.9,-57.5 253.45,-57.5"/>
<text text-anchor="middle" x="276.17" y="-64.5" font-family="Helvetica,sans-Serif" font-size="10.00">cstring</text>
</a>
</g>
</g>
<!-- Node1&#45;&gt;Node7 -->
<g id="edge7" class="edge">
<title>Node1&#45;&gt;Node7</title>
<path fill="none" stroke="midnightblue" d="M198.12,-114.17C212.43,-105.79 233.7,-93.35 250.43,-83.56"/>
<polygon fill="midnightblue" stroke="midnightblue" points="251.98,-86.71 258.84,-78.64 248.44,-80.67 251.98,-86.71"/>
</g>
<!-- Node8 -->
<g id="node8" class="node">
<title>Node8</title>
<g id="a_node8"><a xlink:title=" ">
<polygon fill="white" stroke="#bfbfbf" points="317.23,-57.5 317.23,-77.5 357.12,-77.5 357.12,-57.5 317.23,-57.5"/>
<text text-anchor="middle" x="337.17" y="-64.5" font-family="Helvetica,sans-Serif" font-size="10.00">ctime</text>
</a>
</g>
</g>
<!-- Node1&#45;&gt;Node8 -->
<g id="edge8" class="edge">
<title>Node1&#45;&gt;Node8</title>
<path fill="none" stroke="midnightblue" d="M208.82,-114.05C235.87,-104.45 277.72,-89.6 306.22,-79.48"/>
<polygon fill="midnightblue" stroke="midnightblue" points="307.12,-82.88 315.37,-76.23 304.78,-76.28 307.12,-82.88"/>
</g>
<!-- Node2&#45;&gt;Node3 -->
<g id="edge2" class="edge">
<title>Node2&#45;&gt;Node3</title>
<path fill="none" stroke="midnightblue" d="M74.5,-57.17C66.43,-49.38 54.71,-38.07 44.95,-28.65"/>
<polygon fill="midnightblue" stroke="midnightblue" points="47.41,-26.17 37.79,-21.74 42.55,-31.21 47.41,-26.17"/>
</g>
<!-- Node4 -->
<g id="node4" class="node">
<title>Node4</title>
<g id="a_node4"><a xlink:title=" ">
<polygon fill="white" stroke="#bfbfbf" points="71.95,-0.5 71.95,-20.5 112.4,-20.5 112.4,-0.5 71.95,-0.5"/>
<text text-anchor="middle" x="92.17" y="-7.5" font-family="Helvetica,sans-Serif" font-size="10.00">string</text>
</a>
</g>
</g>
<!-- Node2&#45;&gt;Node4 -->
<g id="edge3" class="edge">
<title>Node2&#45;&gt;Node4</title>
<path fill="none" stroke="midnightblue" d="M85.49,-57.42C86.49,-50.53 87.91,-40.8 89.18,-32.06"/>
<polygon fill="midnightblue" stroke="midnightblue" points="92.63,-32.68 90.6,-22.28 85.7,-31.67 92.63,-32.68"/>
</g>
</g>
</svg>
