<?xml version="1.0" encoding="UTF-8" standalone="no"?>
<!DOCTYPE svg PUBLIC "-//W3C//DTD SVG 1.1//EN"
 "http://www.w3.org/Graphics/SVG/1.1/DTD/svg11.dtd">
<!-- Generated by graphviz version 12.1.1 (20240910.0053)
 -->
<!-- Title: src/logger.hh Pages: 1 -->
<svg width="120pt" height="86pt"
 viewBox="0.00 0.00 120.40 86.00" xmlns="http://www.w3.org/2000/svg" xmlns:xlink="http://www.w3.org/1999/xlink">
<g id="graph0" class="graph" transform="scale(1 1) rotate(0) translate(4 82)">
<title>src/logger.hh</title>
<polygon fill="white" stroke="none" points="-4,4 -4,-82 116.4,-82 116.4,4 -4,4"/>
<!-- Node1 -->
<g id="node1" class="node">
<title>Node1</title>
<g id="a_node1"><a xlink:title=" ">
<polygon fill="#bfbfbf" stroke="black" points="22.27,-57.5 22.27,-77.5 96.08,-77.5 96.08,-57.5 22.27,-57.5"/>
<text text-anchor="middle" x="59.17" y="-64.5" font-family="Helvetica,sans-Serif" font-size="10.00">src/logger.hh</text>
</a>
</g>
</g>
<!-- Node2 -->
<g id="node2" class="node">
<title>Node2</title>
<g id="a_node2"><a xlink:title=" ">
<polygon fill="white" stroke="#bfbfbf" points="0,-0.5 0,-20.5 54.34,-20.5 54.34,-0.5 0,-0.5"/>
<text text-anchor="middle" x="27.17" y="-7.5" font-family="Helvetica,sans-Serif" font-size="10.00">iostream</text>
</a>
</g>
</g>
<!-- Node1&#45;&gt;Node2 -->
<g id="edge1" class="edge">
<title>Node1&#45;&gt;Node2</title>
<path fill="none" stroke="midnightblue" d="M53.89,-57.42C49.65,-50.14 43.56,-39.67 38.27,-30.57"/>
<polygon fill="midnightblue" stroke="midnightblue" points="41.39,-28.97 33.33,-22.09 35.34,-32.49 41.39,-28.97"/>
</g>
<!-- Node3 -->
<g id="node3" class="node">
<title>Node3</title>
<g id="a_node3"><a xlink:title=" ">
<polygon fill="white" stroke="#bfbfbf" points="71.95,-0.5 71.95,-20.5 112.4,-20.5 112.4,-0.5 71.95,-0.5"/>
<text text-anchor="middle" x="92.17" y="-7.5" font-family="Helvetica,sans-Serif" font-size="10.00">string</text>
</a>
</g>
</g>
<!-- Node1&#45;&gt;Node3 -->
<g id="edge2" class="edge">
<title>Node1&#45;&gt;Node3</title>
<path fill="none" stroke="midnightblue" d="M64.62,-57.42C68.99,-50.14 75.27,-39.67 80.73,-30.57"/>
<polygon fill="midnightblue" stroke="midnightblue" points="83.68,-32.45 85.83,-22.08 77.68,-28.85 83.68,-32.45"/>
</g>
</g>
</svg>
