<?xml version="1.0" encoding="UTF-8" standalone="no"?>
<!DOCTYPE svg PUBLIC "-//W3C//DTD SVG 1.1//EN"
 "http://www.w3.org/Graphics/SVG/1.1/DTD/svg11.dtd">
<!-- Generated by graphviz version 12.1.1 (20240910.0053)
 -->
<!-- Title: src/logger.hh Pages: 1 -->
<svg width="334pt" height="86pt"
 viewBox="0.00 0.00 333.57 86.00" xmlns="http://www.w3.org/2000/svg" xmlns:xlink="http://www.w3.org/1999/xlink">
<g id="graph0" class="graph" transform="scale(1 1) rotate(0) translate(4 82)">
<title>src/logger.hh</title>
<polygon fill="white" stroke="none" points="-4,4 -4,-82 329.57,-82 329.57,4 -4,4"/>
<!-- Node1 -->
<g id="node1" class="node">
<title>Node1</title>
<g id="a_node1"><a xlink:title=" ">
<polygon fill="#bfbfbf" stroke="black" points="128.44,-57.5 128.44,-77.5 202.25,-77.5 202.25,-57.5 128.44,-57.5"/>
<text text-anchor="middle" x="165.34" y="-64.5" font-family="Helvetica,sans-Serif" font-size="10.00">src/logger.hh</text>
</a>
</g>
</g>
<!-- Node2 -->
<g id="node2" class="node">
<title>Node2</title>
<g id="a_node2"><a xlink:href="logger_8cc.html" target="_top" xlink:title=" ">
<polygon fill="white" stroke="black" points="0,-0.5 0,-20.5 72.68,-20.5 72.68,-0.5 0,-0.5"/>
<text text-anchor="middle" x="36.34" y="-7.5" font-family="Helvetica,sans-Serif" font-size="10.00">src/logger.cc</text>
</a>
</g>
</g>
<!-- Node1&#45;&gt;Node2 -->
<g id="edge1" class="edge">
<title>Node1&#45;&gt;Node2</title>
<path fill="none" stroke="midnightblue" d="M132.72,-52.59C109.4,-42.65 78.65,-29.54 58.23,-20.83"/>
<polygon fill="midnightblue" stroke="midnightblue" points="131.2,-55.75 141.77,-56.45 133.95,-49.31 131.2,-55.75"/>
</g>
<!-- Node3 -->
<g id="node3" class="node">
<title>Node3</title>
<g id="a_node3"><a xlink:href="main_8cc.html" target="_top" xlink:title=" ">
<polygon fill="white" stroke="black" points="91.06,-0.5 91.06,-20.5 157.62,-20.5 157.62,-0.5 91.06,-0.5"/>
<text text-anchor="middle" x="124.34" y="-7.5" font-family="Helvetica,sans-Serif" font-size="10.00">src/main.cc</text>
</a>
</g>
</g>
<!-- Node1&#45;&gt;Node3 -->
<g id="edge2" class="edge">
<title>Node1&#45;&gt;Node3</title>
<path fill="none" stroke="midnightblue" d="M151.75,-48.27C144.89,-39.06 136.85,-28.28 131.26,-20.78"/>
<polygon fill="midnightblue" stroke="midnightblue" points="148.88,-50.28 157.67,-56.2 154.5,-46.1 148.88,-50.28"/>
</g>
<!-- Node4 -->
<g id="node4" class="node">
<title>Node4</title>
<g id="a_node4"><a xlink:href="uart_8cc.html" target="_top" xlink:title=" ">
<polygon fill="white" stroke="black" points="175.28,-0.5 175.28,-20.5 237.4,-20.5 237.4,-0.5 175.28,-0.5"/>
<text text-anchor="middle" x="206.34" y="-7.5" font-family="Helvetica,sans-Serif" font-size="10.00">src/uart.cc</text>
</a>
</g>
</g>
<!-- Node1&#45;&gt;Node4 -->
<g id="edge3" class="edge">
<title>Node1&#45;&gt;Node4</title>
<path fill="none" stroke="midnightblue" d="M178.93,-48.27C185.8,-39.06 193.84,-28.28 199.42,-20.78"/>
<polygon fill="midnightblue" stroke="midnightblue" points="176.19,-46.1 173.02,-56.2 181.8,-50.28 176.19,-46.1"/>
</g>
<!-- Node5 -->
<g id="node5" class="node">
<title>Node5</title>
<g id="a_node5"><a xlink:href="vision_8cc.html" target="_top" xlink:title=" ">
<polygon fill="white" stroke="black" points="255.12,-0.5 255.12,-20.5 325.57,-20.5 325.57,-0.5 255.12,-0.5"/>
<text text-anchor="middle" x="290.34" y="-7.5" font-family="Helvetica,sans-Serif" font-size="10.00">src/vision.cc</text>
</a>
</g>
</g>
<!-- Node1&#45;&gt;Node5 -->
<g id="edge4" class="edge">
<title>Node1&#45;&gt;Node5</title>
<path fill="none" stroke="midnightblue" d="M197.26,-52.45C219.82,-42.53 249.43,-29.5 269.13,-20.83"/>
<polygon fill="midnightblue" stroke="midnightblue" points="195.96,-49.2 188.22,-56.44 198.78,-55.61 195.96,-49.2"/>
</g>
</g>
</svg>
