<?xml version="1.0" encoding="UTF-8" standalone="no"?>
<!DOCTYPE svg PUBLIC "-//W3C//DTD SVG 1.1//EN"
 "http://www.w3.org/Graphics/SVG/1.1/DTD/svg11.dtd">
<!-- Generated by graphviz version 12.1.1 (20240910.0053)
 -->
<!-- Title: src/main.cc Pages: 1 -->
<svg width="647pt" height="143pt"
 viewBox="0.00 0.00 646.68 143.00" xmlns="http://www.w3.org/2000/svg" xmlns:xlink="http://www.w3.org/1999/xlink">
<g id="graph0" class="graph" transform="scale(1 1) rotate(0) translate(4 139)">
<title>src/main.cc</title>
<polygon fill="white" stroke="none" points="-4,4 -4,-139 642.68,-139 642.68,4 -4,4"/>
<!-- Node1 -->
<g id="node1" class="node">
<title>Node1</title>
<g id="a_node1"><a xlink:title=" ">
<polygon fill="#bfbfbf" stroke="black" points="262.87,-114.5 262.87,-134.5 329.43,-134.5 329.43,-114.5 262.87,-114.5"/>
<text text-anchor="middle" x="296.15" y="-121.5" font-family="Helvetica,sans-Serif" font-size="10.00">src/main.cc</text>
</a>
</g>
</g>
<!-- Node2 -->
<g id="node2" class="node">
<title>Node2</title>
<g id="a_node2"><a xlink:title=" ">
<polygon fill="white" stroke="#bfbfbf" points="0,-57.5 0,-77.5 108.29,-77.5 108.29,-57.5 0,-57.5"/>
<text text-anchor="middle" x="54.15" y="-64.5" font-family="Helvetica,sans-Serif" font-size="10.00">opencv2/opencv.hpp</text>
</a>
</g>
</g>
<!-- Node1&#45;&gt;Node2 -->
<g id="edge1" class="edge">
<title>Node1&#45;&gt;Node2</title>
<path fill="none" stroke="midnightblue" d="M262.5,-115.85C222.1,-106.67 153.88,-91.17 106.56,-80.41"/>
<polygon fill="midnightblue" stroke="midnightblue" points="107.61,-77.06 97.09,-78.26 106.06,-83.89 107.61,-77.06"/>
</g>
<!-- Node3 -->
<g id="node3" class="node">
<title>Node3</title>
<g id="a_node3"><a xlink:title=" ">
<polygon fill="white" stroke="#bfbfbf" points="218.98,-0.5 218.98,-20.5 273.32,-20.5 273.32,-0.5 218.98,-0.5"/>
<text text-anchor="middle" x="246.15" y="-7.5" font-family="Helvetica,sans-Serif" font-size="10.00">iostream</text>
</a>
</g>
</g>
<!-- Node1&#45;&gt;Node3 -->
<g id="edge2" class="edge">
<title>Node1&#45;&gt;Node3</title>
<path fill="none" stroke="midnightblue" d="M262.38,-123.18C229.01,-120.84 179.52,-111.48 155.15,-78 137.04,-53.13 175.5,-33.72 207.87,-22.45"/>
<polygon fill="midnightblue" stroke="midnightblue" points="208.69,-25.87 217.09,-19.42 206.5,-19.22 208.69,-25.87"/>
</g>
<!-- Node4 -->
<g id="node4" class="node">
<title>Node4</title>
<g id="a_node4"><a xlink:title=" ">
<polygon fill="white" stroke="#bfbfbf" points="164.64,-57.5 164.64,-77.5 215.66,-77.5 215.66,-57.5 164.64,-57.5"/>
<text text-anchor="middle" x="190.15" y="-64.5" font-family="Helvetica,sans-Serif" font-size="10.00">unistd.h</text>
</a>
</g>
</g>
<!-- Node1&#45;&gt;Node4 -->
<g id="edge3" class="edge">
<title>Node1&#45;&gt;Node4</title>
<path fill="none" stroke="midnightblue" d="M278.17,-114.17C261.8,-105.68 237.36,-93 218.38,-83.15"/>
<polygon fill="midnightblue" stroke="midnightblue" points="220.05,-80.07 209.56,-78.57 216.82,-86.29 220.05,-80.07"/>
</g>
<!-- Node5 -->
<g id="node5" class="node">
<title>Node5</title>
<g id="a_node5"><a xlink:title=" ">
<polygon fill="white" stroke="#bfbfbf" points="234.08,-57.5 234.08,-77.5 286.22,-77.5 286.22,-57.5 234.08,-57.5"/>
<text text-anchor="middle" x="260.15" y="-64.5" font-family="Helvetica,sans-Serif" font-size="10.00">getopt.h</text>
</a>
</g>
</g>
<!-- Node1&#45;&gt;Node5 -->
<g id="edge4" class="edge">
<title>Node1&#45;&gt;Node5</title>
<path fill="none" stroke="midnightblue" d="M290.2,-114.42C285.39,-107.06 278.44,-96.44 272.43,-87.27"/>
<polygon fill="midnightblue" stroke="midnightblue" points="275.46,-85.5 267.05,-79.05 269.6,-89.33 275.46,-85.5"/>
</g>
<!-- Node6 -->
<g id="node6" class="node">
<title>Node6</title>
<g id="a_node6"><a xlink:title=" ">
<polygon fill="white" stroke="#bfbfbf" points="384.92,-0.5 384.92,-20.5 425.37,-20.5 425.37,-0.5 384.92,-0.5"/>
<text text-anchor="middle" x="405.15" y="-7.5" font-family="Helvetica,sans-Serif" font-size="10.00">string</text>
</a>
</g>
</g>
<!-- Node1&#45;&gt;Node6 -->
<g id="edge5" class="edge">
<title>Node1&#45;&gt;Node6</title>
<path fill="none" stroke="midnightblue" d="M318.42,-114.05C334.65,-106.28 356.32,-93.95 371.15,-78 383.7,-64.5 392.8,-45.48 398.41,-31.24"/>
<polygon fill="midnightblue" stroke="midnightblue" points="401.62,-32.64 401.77,-22.05 395.05,-30.23 401.62,-32.64"/>
</g>
<!-- Node7 -->
<g id="node7" class="node">
<title>Node7</title>
<g id="a_node7"><a xlink:href="logger_8hh.html" target="_top" xlink:title=" ">
<polygon fill="white" stroke="black" points="304.3,-57.5 304.3,-77.5 362,-77.5 362,-57.5 304.3,-57.5"/>
<text text-anchor="middle" x="333.15" y="-64.5" font-family="Helvetica,sans-Serif" font-size="10.00">logger.hh</text>
</a>
</g>
</g>
<!-- Node1&#45;&gt;Node7 -->
<g id="edge6" class="edge">
<title>Node1&#45;&gt;Node7</title>
<path fill="none" stroke="midnightblue" d="M302.26,-114.42C307.21,-107.06 314.35,-96.44 320.52,-87.27"/>
<polygon fill="midnightblue" stroke="midnightblue" points="323.38,-89.29 326.06,-79.04 317.57,-85.38 323.38,-89.29"/>
</g>
<!-- Node8 -->
<g id="node8" class="node">
<title>Node8</title>
<g id="a_node8"><a xlink:href="vision_8hh.html" target="_top" xlink:title=" ">
<polygon fill="white" stroke="black" points="483.41,-57.5 483.41,-77.5 538.88,-77.5 538.88,-57.5 483.41,-57.5"/>
<text text-anchor="middle" x="511.15" y="-64.5" font-family="Helvetica,sans-Serif" font-size="10.00">vision.hh</text>
</a>
</g>
</g>
<!-- Node1&#45;&gt;Node8 -->
<g id="edge9" class="edge">
<title>Node1&#45;&gt;Node8</title>
<path fill="none" stroke="midnightblue" d="M329.82,-115.04C363.57,-106.54 417.3,-92.94 472.25,-78.74"/>
<polygon fill="midnightblue" stroke="midnightblue" points="472.98,-82.16 481.78,-76.27 471.22,-75.39 472.98,-82.16"/>
</g>
<!-- Node11 -->
<g id="node11" class="node">
<title>Node11</title>
<g id="a_node11"><a xlink:href="uart_8hh.html" target="_top" xlink:title=" ">
<polygon fill="white" stroke="black" points="418.58,-57.5 418.58,-77.5 465.71,-77.5 465.71,-57.5 418.58,-57.5"/>
<text text-anchor="middle" x="442.15" y="-64.5" font-family="Helvetica,sans-Serif" font-size="10.00">uart.hh</text>
</a>
</g>
</g>
<!-- Node1&#45;&gt;Node11 -->
<g id="edge13" class="edge">
<title>Node1&#45;&gt;Node11</title>
<path fill="none" stroke="midnightblue" d="M321.25,-114.05C345.07,-105.07 381.09,-91.5 407.62,-81.51"/>
<polygon fill="midnightblue" stroke="midnightblue" points="408.8,-84.8 416.93,-78 406.34,-78.25 408.8,-84.8"/>
</g>
<!-- Node7&#45;&gt;Node3 -->
<g id="edge7" class="edge">
<title>Node7&#45;&gt;Node3</title>
<path fill="none" stroke="midnightblue" d="M318.39,-57.17C305.27,-48.87 285.82,-36.58 270.42,-26.84"/>
<polygon fill="midnightblue" stroke="midnightblue" points="272.58,-24.07 262.26,-21.68 268.84,-29.99 272.58,-24.07"/>
</g>
<!-- Node7&#45;&gt;Node6 -->
<g id="edge8" class="edge">
<title>Node7&#45;&gt;Node6</title>
<path fill="none" stroke="midnightblue" d="M345.36,-57.17C355.98,-49.06 371.58,-37.14 384.19,-27.51"/>
<polygon fill="midnightblue" stroke="midnightblue" points="386.09,-30.46 391.91,-21.61 381.84,-24.9 386.09,-30.46"/>
</g>
<!-- Node8&#45;&gt;Node6 -->
<g id="edge10" class="edge">
<title>Node8&#45;&gt;Node6</title>
<path fill="none" stroke="midnightblue" d="M493.17,-57.17C476.8,-48.68 452.36,-36 433.38,-26.15"/>
<polygon fill="midnightblue" stroke="midnightblue" points="435.05,-23.07 424.56,-21.57 431.82,-29.29 435.05,-23.07"/>
</g>
<!-- Node9 -->
<g id="node9" class="node">
<title>Node9</title>
<g id="a_node9"><a xlink:title=" ">
<polygon fill="white" stroke="#bfbfbf" points="472.86,-0.5 472.86,-20.5 519.44,-20.5 519.44,-0.5 472.86,-0.5"/>
<text text-anchor="middle" x="496.15" y="-7.5" font-family="Helvetica,sans-Serif" font-size="10.00">chrono</text>
</a>
</g>
</g>
<!-- Node8&#45;&gt;Node9 -->
<g id="edge11" class="edge">
<title>Node8&#45;&gt;Node9</title>
<path fill="none" stroke="midnightblue" d="M508.67,-57.42C506.77,-50.45 504.08,-40.57 501.67,-31.76"/>
<polygon fill="midnightblue" stroke="midnightblue" points="505.08,-30.97 499.08,-22.24 498.33,-32.81 505.08,-30.97"/>
</g>
<!-- Node10 -->
<g id="node10" class="node">
<title>Node10</title>
<g id="a_node10"><a xlink:title=" ">
<polygon fill="white" stroke="#bfbfbf" points="537.62,-0.5 537.62,-20.5 638.68,-20.5 638.68,-0.5 537.62,-0.5"/>
<text text-anchor="middle" x="588.15" y="-7.5" font-family="Helvetica,sans-Serif" font-size="10.00">opencv2/aruco.hpp</text>
</a>
</g>
</g>
<!-- Node8&#45;&gt;Node10 -->
<g id="edge12" class="edge">
<title>Node8&#45;&gt;Node10</title>
<path fill="none" stroke="midnightblue" d="M524.21,-57.17C535.6,-49.03 552.38,-37.05 565.89,-27.4"/>
<polygon fill="midnightblue" stroke="midnightblue" points="567.69,-30.42 573.79,-21.76 563.62,-24.72 567.69,-30.42"/>
</g>
<!-- Node11&#45;&gt;Node6 -->
<g id="edge14" class="edge">
<title>Node11&#45;&gt;Node6</title>
<path fill="none" stroke="midnightblue" d="M436.04,-57.42C431.09,-50.06 423.94,-39.44 417.77,-30.27"/>
<polygon fill="midnightblue" stroke="midnightblue" points="420.72,-28.38 412.23,-22.04 414.91,-32.29 420.72,-28.38"/>
</g>
</g>
</svg>
