<?xml version="1.0" encoding="UTF-8" standalone="no"?>
<!DOCTYPE svg PUBLIC "-//W3C//DTD SVG 1.1//EN"
 "http://www.w3.org/Graphics/SVG/1.1/DTD/svg11.dtd">
<!-- Generated by graphviz version 12.1.1 (20240910.0053)
 -->
<!-- Title: src/uart.hh Pages: 1 -->
<svg width="243pt" height="86pt"
 viewBox="0.00 0.00 242.51 86.00" xmlns="http://www.w3.org/2000/svg" xmlns:xlink="http://www.w3.org/1999/xlink">
<g id="graph0" class="graph" transform="scale(1 1) rotate(0) translate(4 82)">
<title>src/uart.hh</title>
<polygon fill="white" stroke="none" points="-4,4 -4,-82 238.51,-82 238.51,4 -4,4"/>
<!-- Node1 -->
<g id="node1" class="node">
<title>Node1</title>
<g id="a_node1"><a xlink:title=" ">
<polygon fill="#bfbfbf" stroke="black" points="83.66,-57.5 83.66,-77.5 146.9,-77.5 146.9,-57.5 83.66,-57.5"/>
<text text-anchor="middle" x="115.28" y="-64.5" font-family="Helvetica,sans-Serif" font-size="10.00">src/uart.hh</text>
</a>
</g>
</g>
<!-- Node2 -->
<g id="node2" class="node">
<title>Node2</title>
<g id="a_node2"><a xlink:href="main_8cc.html" target="_top" xlink:title=" ">
<polygon fill="white" stroke="black" points="0,-0.5 0,-20.5 66.56,-20.5 66.56,-0.5 0,-0.5"/>
<text text-anchor="middle" x="33.28" y="-7.5" font-family="Helvetica,sans-Serif" font-size="10.00">src/main.cc</text>
</a>
</g>
</g>
<!-- Node1&#45;&gt;Node2 -->
<g id="edge1" class="edge">
<title>Node1&#45;&gt;Node2</title>
<path fill="none" stroke="midnightblue" d="M92.07,-50.93C77.63,-41.25 59.53,-29.11 47.26,-20.88"/>
<polygon fill="midnightblue" stroke="midnightblue" points="89.86,-53.66 100.11,-56.33 93.76,-47.85 89.86,-53.66"/>
</g>
<!-- Node3 -->
<g id="node3" class="node">
<title>Node3</title>
<g id="a_node3"><a xlink:href="uart_8cc.html" target="_top" xlink:title=" ">
<polygon fill="white" stroke="black" points="84.22,-0.5 84.22,-20.5 146.34,-20.5 146.34,-0.5 84.22,-0.5"/>
<text text-anchor="middle" x="115.28" y="-7.5" font-family="Helvetica,sans-Serif" font-size="10.00">src/uart.cc</text>
</a>
</g>
</g>
<!-- Node1&#45;&gt;Node3 -->
<g id="edge2" class="edge">
<title>Node1&#45;&gt;Node3</title>
<path fill="none" stroke="midnightblue" d="M115.28,-46.19C115.28,-37.47 115.28,-27.72 115.28,-20.78"/>
<polygon fill="midnightblue" stroke="midnightblue" points="111.78,-45.9 115.28,-55.9 118.78,-45.9 111.78,-45.9"/>
</g>
<!-- Node4 -->
<g id="node4" class="node">
<title>Node4</title>
<g id="a_node4"><a xlink:href="vision_8cc.html" target="_top" xlink:title=" ">
<polygon fill="white" stroke="black" points="164.05,-0.5 164.05,-20.5 234.51,-20.5 234.51,-0.5 164.05,-0.5"/>
<text text-anchor="middle" x="199.28" y="-7.5" font-family="Helvetica,sans-Serif" font-size="10.00">src/vision.cc</text>
</a>
</g>
</g>
<!-- Node1&#45;&gt;Node4 -->
<g id="edge3" class="edge">
<title>Node1&#45;&gt;Node4</title>
<path fill="none" stroke="midnightblue" d="M139.06,-50.93C153.85,-41.25 172.39,-29.11 184.96,-20.88"/>
<polygon fill="midnightblue" stroke="midnightblue" points="137.25,-47.93 130.8,-56.34 141.08,-53.79 137.25,-47.93"/>
</g>
</g>
</svg>
