<?xml version="1.0" encoding="UTF-8" standalone="no"?>
<!DOCTYPE svg PUBLIC "-//W3C//DTD SVG 1.1//EN"
 "http://www.w3.org/Graphics/SVG/1.1/DTD/svg11.dtd">
<!-- Generated by graphviz version 12.1.1 (20240910.0053)
 -->
<!-- Title: src/uart.cc Pages: 1 -->
<svg width="525pt" height="143pt"
 viewBox="0.00 0.00 525.34 143.00" xmlns="http://www.w3.org/2000/svg" xmlns:xlink="http://www.w3.org/1999/xlink">
<g id="graph0" class="graph" transform="scale(1 1) rotate(0) translate(4 139)">
<title>src/uart.cc</title>
<polygon fill="white" stroke="none" points="-4,4 -4,-139 521.34,-139 521.34,4 -4,4"/>
<!-- Node1 -->
<g id="node1" class="node">
<title>Node1</title>
<g id="a_node1"><a xlink:title=" ">
<polygon fill="#bfbfbf" stroke="black" points="231.11,-114.5 231.11,-134.5 293.23,-134.5 293.23,-114.5 231.11,-114.5"/>
<text text-anchor="middle" x="262.17" y="-121.5" font-family="Helvetica,sans-Serif" font-size="10.00">src/uart.cc</text>
</a>
</g>
</g>
<!-- Node2 -->
<g id="node2" class="node">
<title>Node2</title>
<g id="a_node2"><a xlink:title=" ">
<polygon fill="white" stroke="#bfbfbf" points="0,-57.5 0,-77.5 44.34,-77.5 44.34,-57.5 0,-57.5"/>
<text text-anchor="middle" x="22.17" y="-64.5" font-family="Helvetica,sans-Serif" font-size="10.00">cstdlib</text>
</a>
</g>
</g>
<!-- Node1&#45;&gt;Node2 -->
<g id="edge1" class="edge">
<title>Node1&#45;&gt;Node2</title>
<path fill="none" stroke="midnightblue" d="M230.64,-117.35C191.82,-109.62 123.66,-95.52 55.74,-78.25"/>
<polygon fill="midnightblue" stroke="midnightblue" points="56.86,-74.93 46.31,-75.83 55.12,-81.71 56.86,-74.93"/>
</g>
<!-- Node3 -->
<g id="node3" class="node">
<title>Node3</title>
<g id="a_node3"><a xlink:title=" ">
<polygon fill="white" stroke="#bfbfbf" points="62.83,-57.5 62.83,-77.5 105.51,-77.5 105.51,-57.5 62.83,-57.5"/>
<text text-anchor="middle" x="84.17" y="-64.5" font-family="Helvetica,sans-Serif" font-size="10.00">fcntl.h</text>
</a>
</g>
</g>
<!-- Node1&#45;&gt;Node3 -->
<g id="edge2" class="edge">
<title>Node1&#45;&gt;Node3</title>
<path fill="none" stroke="midnightblue" d="M231.57,-114.05C199.56,-104.15 149.51,-88.69 116.77,-78.57"/>
<polygon fill="midnightblue" stroke="midnightblue" points="118,-75.29 107.42,-75.68 115.94,-81.98 118,-75.29"/>
</g>
<!-- Node4 -->
<g id="node4" class="node">
<title>Node4</title>
<g id="a_node4"><a xlink:title=" ">
<polygon fill="white" stroke="#bfbfbf" points="371.95,-0.5 371.95,-20.5 412.4,-20.5 412.4,-0.5 371.95,-0.5"/>
<text text-anchor="middle" x="392.17" y="-7.5" font-family="Helvetica,sans-Serif" font-size="10.00">string</text>
</a>
</g>
</g>
<!-- Node1&#45;&gt;Node4 -->
<g id="edge3" class="edge">
<title>Node1&#45;&gt;Node4</title>
<path fill="none" stroke="midnightblue" d="M230.7,-117.26C189.91,-107.79 126.84,-87.59 152.17,-57 178.24,-25.53 301.08,-15.65 360.21,-12.7"/>
<polygon fill="midnightblue" stroke="midnightblue" points="360.13,-16.2 369.96,-12.25 359.81,-9.21 360.13,-16.2"/>
</g>
<!-- Node5 -->
<g id="node5" class="node">
<title>Node5</title>
<g id="a_node5"><a xlink:title=" ">
<polygon fill="white" stroke="#bfbfbf" points="161.61,-57.5 161.61,-77.5 218.73,-77.5 218.73,-57.5 161.61,-57.5"/>
<text text-anchor="middle" x="190.17" y="-64.5" font-family="Helvetica,sans-Serif" font-size="10.00">termios.h</text>
</a>
</g>
</g>
<!-- Node1&#45;&gt;Node5 -->
<g id="edge4" class="edge">
<title>Node1&#45;&gt;Node5</title>
<path fill="none" stroke="midnightblue" d="M249.96,-114.17C239.34,-106.06 223.74,-94.14 211.13,-84.51"/>
<polygon fill="midnightblue" stroke="midnightblue" points="213.48,-81.9 203.41,-78.61 209.23,-87.46 213.48,-81.9"/>
</g>
<!-- Node6 -->
<g id="node6" class="node">
<title>Node6</title>
<g id="a_node6"><a xlink:title=" ">
<polygon fill="white" stroke="#bfbfbf" points="236.66,-57.5 236.66,-77.5 287.68,-77.5 287.68,-57.5 236.66,-57.5"/>
<text text-anchor="middle" x="262.17" y="-64.5" font-family="Helvetica,sans-Serif" font-size="10.00">unistd.h</text>
</a>
</g>
</g>
<!-- Node1&#45;&gt;Node6 -->
<g id="edge5" class="edge">
<title>Node1&#45;&gt;Node6</title>
<path fill="none" stroke="midnightblue" d="M262.17,-114.42C262.17,-107.53 262.17,-97.8 262.17,-89.06"/>
<polygon fill="midnightblue" stroke="midnightblue" points="265.67,-89.29 262.17,-79.29 258.67,-89.29 265.67,-89.29"/>
</g>
<!-- Node7 -->
<g id="node7" class="node">
<title>Node7</title>
<g id="a_node7"><a xlink:title=" ">
<polygon fill="white" stroke="#bfbfbf" points="305.45,-57.5 305.45,-77.5 350.9,-77.5 350.9,-57.5 305.45,-57.5"/>
<text text-anchor="middle" x="328.17" y="-64.5" font-family="Helvetica,sans-Serif" font-size="10.00">cstring</text>
</a>
</g>
</g>
<!-- Node1&#45;&gt;Node7 -->
<g id="edge6" class="edge">
<title>Node1&#45;&gt;Node7</title>
<path fill="none" stroke="midnightblue" d="M273.37,-114.17C283,-106.14 297.13,-94.37 308.62,-84.79"/>
<polygon fill="midnightblue" stroke="midnightblue" points="310.54,-87.75 315.98,-78.66 306.06,-82.37 310.54,-87.75"/>
</g>
<!-- Node8 -->
<g id="node8" class="node">
<title>Node8</title>
<g id="a_node8"><a xlink:title=" ">
<polygon fill="white" stroke="#bfbfbf" points="463,-0.5 463,-20.5 517.34,-20.5 517.34,-0.5 463,-0.5"/>
<text text-anchor="middle" x="490.17" y="-7.5" font-family="Helvetica,sans-Serif" font-size="10.00">iostream</text>
</a>
</g>
</g>
<!-- Node1&#45;&gt;Node8 -->
<g id="edge7" class="edge">
<title>Node1&#45;&gt;Node8</title>
<path fill="none" stroke="midnightblue" d="M293.62,-122.27C352.17,-119.26 474.3,-109.28 500.17,-78 510.86,-65.08 506.41,-45.73 500.44,-31.23"/>
<polygon fill="midnightblue" stroke="midnightblue" points="503.64,-29.8 496.23,-22.22 497.3,-32.76 503.64,-29.8"/>
</g>
<!-- Node9 -->
<g id="node9" class="node">
<title>Node9</title>
<g id="a_node9"><a xlink:href="logger_8hh.html" target="_top" xlink:title=" ">
<polygon fill="white" stroke="black" points="433.32,-57.5 433.32,-77.5 491.02,-77.5 491.02,-57.5 433.32,-57.5"/>
<text text-anchor="middle" x="462.17" y="-64.5" font-family="Helvetica,sans-Serif" font-size="10.00">logger.hh</text>
</a>
</g>
</g>
<!-- Node1&#45;&gt;Node9 -->
<g id="edge8" class="edge">
<title>Node1&#45;&gt;Node9</title>
<path fill="none" stroke="midnightblue" d="M293.42,-114.91C328.22,-105.34 384.54,-89.85 422.44,-79.43"/>
<polygon fill="midnightblue" stroke="midnightblue" points="422.92,-82.93 431.63,-76.9 421.06,-76.18 422.92,-82.93"/>
</g>
<!-- Node10 -->
<g id="node10" class="node">
<title>Node10</title>
<g id="a_node10"><a xlink:href="uart_8hh.html" target="_top" xlink:title=" ">
<polygon fill="white" stroke="black" points="368.61,-57.5 368.61,-77.5 415.74,-77.5 415.74,-57.5 368.61,-57.5"/>
<text text-anchor="middle" x="392.17" y="-64.5" font-family="Helvetica,sans-Serif" font-size="10.00">uart.hh</text>
</a>
</g>
</g>
<!-- Node1&#45;&gt;Node10 -->
<g id="edge11" class="edge">
<title>Node1&#45;&gt;Node10</title>
<path fill="none" stroke="midnightblue" d="M284.52,-114.05C305.2,-105.3 336.2,-92.18 359.63,-82.27"/>
<polygon fill="midnightblue" stroke="midnightblue" points="360.88,-85.54 368.72,-78.42 358.15,-79.09 360.88,-85.54"/>
</g>
<!-- Node9&#45;&gt;Node4 -->
<g id="edge10" class="edge">
<title>Node9&#45;&gt;Node4</title>
<path fill="none" stroke="midnightblue" d="M450.3,-57.17C440.08,-49.14 425.1,-37.37 412.91,-27.79"/>
<polygon fill="midnightblue" stroke="midnightblue" points="415.09,-25.05 405.06,-21.63 410.76,-30.56 415.09,-25.05"/>
</g>
<!-- Node9&#45;&gt;Node8 -->
<g id="edge9" class="edge">
<title>Node9&#45;&gt;Node8</title>
<path fill="none" stroke="midnightblue" d="M466.8,-57.42C470.46,-50.22 475.72,-39.9 480.31,-30.86"/>
<polygon fill="midnightblue" stroke="midnightblue" points="483.34,-32.63 484.76,-22.13 477.11,-29.45 483.34,-32.63"/>
</g>
<!-- Node10&#45;&gt;Node4 -->
<g id="edge12" class="edge">
<title>Node10&#45;&gt;Node4</title>
<path fill="none" stroke="midnightblue" d="M392.17,-57.42C392.17,-50.53 392.17,-40.8 392.17,-32.06"/>
<polygon fill="midnightblue" stroke="midnightblue" points="395.67,-32.29 392.17,-22.29 388.67,-32.29 395.67,-32.29"/>
</g>
</g>
</svg>
