<?xml version="1.0" encoding="UTF-8" standalone="no"?>
<!DOCTYPE svg PUBLIC "-//W3C//DTD SVG 1.1//EN"
 "http://www.w3.org/Graphics/SVG/1.1/DTD/svg11.dtd">
<!-- Generated by graphviz version 12.1.1 (20240910.0053)
 -->
<!-- Title: src/vision.cc Pages: 1 -->
<svg width="1202pt" height="155pt"
 viewBox="0.00 0.00 1202.30 155.00" xmlns="http://www.w3.org/2000/svg" xmlns:xlink="http://www.w3.org/1999/xlink">
<g id="graph0" class="graph" transform="scale(1 1) rotate(0) translate(4 151)">
<title>src/vision.cc</title>
<polygon fill="white" stroke="none" points="-4,4 -4,-151 1198.3,-151 1198.3,4 -4,4"/>
<!-- Node1 -->
<g id="node1" class="node">
<title>Node1</title>
<g id="a_node1"><a xlink:title=" ">
<polygon fill="#bfbfbf" stroke="black" points="629.22,-126.5 629.22,-146.5 699.68,-146.5 699.68,-126.5 629.22,-126.5"/>
<text text-anchor="middle" x="664.45" y="-133.5" font-family="Helvetica,sans-Serif" font-size="10.00">src/vision.cc</text>
</a>
</g>
</g>
<!-- Node2 -->
<g id="node2" class="node">
<title>Node2</title>
<g id="a_node2"><a xlink:title=" ">
<polygon fill="white" stroke="#bfbfbf" points="0,-63.5 0,-83.5 44.9,-83.5 44.9,-63.5 0,-63.5"/>
<text text-anchor="middle" x="22.45" y="-70.5" font-family="Helvetica,sans-Serif" font-size="10.00">cctype</text>
</a>
</g>
</g>
<!-- Node1&#45;&gt;Node2 -->
<g id="edge1" class="edge">
<title>Node1&#45;&gt;Node2</title>
<path fill="none" stroke="midnightblue" d="M629.05,-134.6C515.9,-131.45 164.05,-119.48 54.45,-90 52.81,-89.56 51.16,-89.03 49.5,-88.45"/>
<polygon fill="midnightblue" stroke="midnightblue" points="50.89,-85.24 40.32,-84.53 48.15,-91.68 50.89,-85.24"/>
</g>
<!-- Node3 -->
<g id="node3" class="node">
<title>Node3</title>
<g id="a_node3"><a xlink:title=" ">
<polygon fill="white" stroke="#bfbfbf" points="63.28,-63.5 63.28,-83.5 107.62,-83.5 107.62,-63.5 63.28,-63.5"/>
<text text-anchor="middle" x="85.45" y="-70.5" font-family="Helvetica,sans-Serif" font-size="10.00">cstdlib</text>
</a>
</g>
</g>
<!-- Node1&#45;&gt;Node3 -->
<g id="edge2" class="edge">
<title>Node1&#45;&gt;Node3</title>
<path fill="none" stroke="midnightblue" d="M628.97,-134.31C523.56,-130.5 213.55,-117.21 116.45,-90 114.86,-89.55 113.25,-89.02 111.65,-88.43"/>
<polygon fill="midnightblue" stroke="midnightblue" points="113.34,-85.36 102.78,-84.53 110.52,-91.76 113.34,-85.36"/>
</g>
<!-- Node4 -->
<g id="node4" class="node">
<title>Node4</title>
<g id="a_node4"><a xlink:title=" ">
<polygon fill="white" stroke="#bfbfbf" points="125.5,-63.5 125.5,-83.5 165.4,-83.5 165.4,-63.5 125.5,-63.5"/>
<text text-anchor="middle" x="145.45" y="-70.5" font-family="Helvetica,sans-Serif" font-size="10.00">ctime</text>
</a>
</g>
</g>
<!-- Node1&#45;&gt;Node4 -->
<g id="edge3" class="edge">
<title>Node1&#45;&gt;Node4</title>
<path fill="none" stroke="midnightblue" d="M628.91,-134.03C531.14,-129.69 259.75,-115.62 174.45,-90 173.1,-89.59 171.73,-89.12 170.38,-88.6"/>
<polygon fill="midnightblue" stroke="midnightblue" points="172.22,-85.6 161.68,-84.54 169.26,-91.94 172.22,-85.6"/>
</g>
<!-- Node5 -->
<g id="node5" class="node">
<title>Node5</title>
<g id="a_node5"><a xlink:title=" ">
<polygon fill="white" stroke="#bfbfbf" points="183.3,-63.5 183.3,-83.5 291.6,-83.5 291.6,-63.5 183.3,-63.5"/>
<text text-anchor="middle" x="237.45" y="-70.5" font-family="Helvetica,sans-Serif" font-size="10.00">opencv2/opencv.hpp</text>
</a>
</g>
</g>
<!-- Node1&#45;&gt;Node5 -->
<g id="edge4" class="edge">
<title>Node1&#45;&gt;Node5</title>
<path fill="none" stroke="midnightblue" d="M628.86,-132.16C564.18,-125.82 423.15,-110.82 305.45,-90 299.41,-88.93 293.11,-87.68 286.87,-86.36"/>
<polygon fill="midnightblue" stroke="midnightblue" points="287.79,-82.98 277.27,-84.26 286.29,-89.82 287.79,-82.98"/>
</g>
<!-- Node6 -->
<g id="node6" class="node">
<title>Node6</title>
<g id="a_node6"><a xlink:title=" ">
<polygon fill="white" stroke="#bfbfbf" points="471.92,-0.5 471.92,-20.5 572.98,-20.5 572.98,-0.5 471.92,-0.5"/>
<text text-anchor="middle" x="522.45" y="-7.5" font-family="Helvetica,sans-Serif" font-size="10.00">opencv2/aruco.hpp</text>
</a>
</g>
</g>
<!-- Node1&#45;&gt;Node6 -->
<g id="edge5" class="edge">
<title>Node1&#45;&gt;Node6</title>
<path fill="none" stroke="midnightblue" d="M629,-136.12C552.5,-136.6 375.82,-132.95 338.45,-90 299.87,-45.67 392.68,-25.64 460.04,-17.16"/>
<polygon fill="midnightblue" stroke="midnightblue" points="460.43,-20.64 469.95,-15.98 459.6,-13.69 460.43,-20.64"/>
</g>
<!-- Node7 -->
<g id="node7" class="node">
<title>Node7</title>
<g id="a_node7"><a xlink:title=" ">
<polygon fill="white" stroke="#bfbfbf" points="347.7,-63.5 347.7,-83.5 443.2,-83.5 443.2,-63.5 347.7,-63.5"/>
<text text-anchor="middle" x="395.45" y="-70.5" font-family="Helvetica,sans-Serif" font-size="10.00">opencv2/core.hpp</text>
</a>
</g>
</g>
<!-- Node1&#45;&gt;Node7 -->
<g id="edge6" class="edge">
<title>Node1&#45;&gt;Node7</title>
<path fill="none" stroke="midnightblue" d="M629.06,-128.51C586.86,-120.04 514.27,-105.03 452.45,-90 448.43,-89.02 444.26,-87.97 440.08,-86.88"/>
<polygon fill="midnightblue" stroke="midnightblue" points="441.16,-83.55 430.59,-84.37 439.36,-90.31 441.16,-83.55"/>
</g>
<!-- Node8 -->
<g id="node8" class="node">
<title>Node8</title>
<g id="a_node8"><a xlink:title=" ">
<polygon fill="white" stroke="#bfbfbf" points="460.97,-57.5 460.97,-89.5 585.93,-89.5 585.93,-57.5 460.97,-57.5"/>
<text text-anchor="start" x="468.97" y="-76.5" font-family="Helvetica,sans-Serif" font-size="10.00">opencv2/objdetect/aruco</text>
<text text-anchor="middle" x="523.45" y="-64.5" font-family="Helvetica,sans-Serif" font-size="10.00">_dictionary.hpp</text>
</a>
</g>
</g>
<!-- Node1&#45;&gt;Node8 -->
<g id="edge7" class="edge">
<title>Node1&#45;&gt;Node8</title>
<path fill="none" stroke="midnightblue" d="M642.73,-126.1C623.26,-117.68 594.06,-105.05 569.43,-94.39"/>
<polygon fill="midnightblue" stroke="midnightblue" points="571.15,-91.32 560.58,-90.56 568.37,-97.75 571.15,-91.32"/>
</g>
<!-- Node9 -->
<g id="node9" class="node">
<title>Node9</title>
<g id="a_node9"><a xlink:title=" ">
<polygon fill="white" stroke="#bfbfbf" points="603.94,-63.5 603.94,-83.5 654.96,-83.5 654.96,-63.5 603.94,-63.5"/>
<text text-anchor="middle" x="629.45" y="-70.5" font-family="Helvetica,sans-Serif" font-size="10.00">sched.h</text>
</a>
</g>
</g>
<!-- Node1&#45;&gt;Node9 -->
<g id="edge8" class="edge">
<title>Node1&#45;&gt;Node9</title>
<path fill="none" stroke="midnightblue" d="M659.13,-126.24C654.2,-117.64 646.7,-104.57 640.48,-93.72"/>
<polygon fill="midnightblue" stroke="midnightblue" points="643.58,-92.1 635.57,-85.16 637.51,-95.58 643.58,-92.1"/>
</g>
<!-- Node10 -->
<g id="node10" class="node">
<title>Node10</title>
<g id="a_node10"><a xlink:title=" ">
<polygon fill="white" stroke="#bfbfbf" points="1049.22,-0.5 1049.22,-20.5 1089.68,-20.5 1089.68,-0.5 1049.22,-0.5"/>
<text text-anchor="middle" x="1069.45" y="-7.5" font-family="Helvetica,sans-Serif" font-size="10.00">string</text>
</a>
</g>
</g>
<!-- Node1&#45;&gt;Node10 -->
<g id="edge9" class="edge">
<title>Node1&#45;&gt;Node10</title>
<path fill="none" stroke="midnightblue" d="M700.17,-134.96C780.36,-133.12 971.84,-125.08 1024.45,-90 1044.93,-76.35 1057.2,-50 1063.63,-31.61"/>
<polygon fill="midnightblue" stroke="midnightblue" points="1066.89,-32.93 1066.59,-22.34 1060.22,-30.8 1066.89,-32.93"/>
</g>
<!-- Node11 -->
<g id="node11" class="node">
<title>Node11</title>
<g id="a_node11"><a xlink:title=" ">
<polygon fill="white" stroke="#bfbfbf" points="745.83,-63.5 745.83,-83.5 789.07,-83.5 789.07,-63.5 745.83,-63.5"/>
<text text-anchor="middle" x="767.45" y="-70.5" font-family="Helvetica,sans-Serif" font-size="10.00">vector</text>
</a>
</g>
</g>
<!-- Node1&#45;&gt;Node11 -->
<g id="edge10" class="edge">
<title>Node1&#45;&gt;Node11</title>
<path fill="none" stroke="midnightblue" d="M680.09,-126.24C696.5,-116.52 722.56,-101.09 741.95,-89.6"/>
<polygon fill="midnightblue" stroke="midnightblue" points="743.54,-92.73 750.36,-84.62 739.97,-86.71 743.54,-92.73"/>
</g>
<!-- Node12 -->
<g id="node12" class="node">
<title>Node12</title>
<g id="a_node12"><a xlink:title=" ">
<polygon fill="white" stroke="#bfbfbf" points="735.16,-0.5 735.16,-20.5 781.74,-20.5 781.74,-0.5 735.16,-0.5"/>
<text text-anchor="middle" x="758.45" y="-7.5" font-family="Helvetica,sans-Serif" font-size="10.00">chrono</text>
</a>
</g>
</g>
<!-- Node1&#45;&gt;Node12 -->
<g id="edge11" class="edge">
<title>Node1&#45;&gt;Node12</title>
<path fill="none" stroke="midnightblue" d="M699.9,-134.33C731.54,-131.17 776.2,-121.05 798.45,-90 812.49,-70.41 794.1,-45.2 777.88,-28.71"/>
<polygon fill="midnightblue" stroke="midnightblue" points="780.52,-26.39 770.87,-22 775.67,-31.45 780.52,-26.39"/>
</g>
<!-- Node13 -->
<g id="node13" class="node">
<title>Node13</title>
<g id="a_node13"><a xlink:title=" ">
<polygon fill="white" stroke="#bfbfbf" points="845.27,-63.5 845.27,-83.5 889.63,-83.5 889.63,-63.5 845.27,-63.5"/>
<text text-anchor="middle" x="867.45" y="-70.5" font-family="Helvetica,sans-Serif" font-size="10.00">thread</text>
</a>
</g>
</g>
<!-- Node1&#45;&gt;Node13 -->
<g id="edge12" class="edge">
<title>Node1&#45;&gt;Node13</title>
<path fill="none" stroke="midnightblue" d="M700.08,-127.33C734.19,-119.15 786.91,-105.57 831.45,-90 833.22,-89.38 835.02,-88.72 836.83,-88.03"/>
<polygon fill="midnightblue" stroke="midnightblue" points="837.74,-91.43 845.68,-84.43 835.1,-84.95 837.74,-91.43"/>
</g>
<!-- Node14 -->
<g id="node14" class="node">
<title>Node14</title>
<g id="a_node14"><a xlink:title=" ">
<polygon fill="white" stroke="#bfbfbf" points="907.58,-63.5 907.58,-83.5 1015.32,-83.5 1015.32,-63.5 907.58,-63.5"/>
<text text-anchor="middle" x="961.45" y="-70.5" font-family="Helvetica,sans-Serif" font-size="10.00">opencv2/videoio.hpp</text>
</a>
</g>
</g>
<!-- Node1&#45;&gt;Node14 -->
<g id="edge13" class="edge">
<title>Node1&#45;&gt;Node14</title>
<path fill="none" stroke="midnightblue" d="M699.84,-129.18C745.77,-120.85 828.32,-105.43 898.45,-90 903.28,-88.94 908.31,-87.78 913.33,-86.6"/>
<polygon fill="midnightblue" stroke="midnightblue" points="913.83,-90.08 922.74,-84.34 912.2,-83.27 913.83,-90.08"/>
</g>
<!-- Node15 -->
<g id="node15" class="node">
<title>Node15</title>
<g id="a_node15"><a xlink:href="vision_8hh.html" target="_top" xlink:title=" ">
<polygon fill="white" stroke="black" points="672.72,-63.5 672.72,-83.5 728.18,-83.5 728.18,-63.5 672.72,-63.5"/>
<text text-anchor="middle" x="700.45" y="-70.5" font-family="Helvetica,sans-Serif" font-size="10.00">vision.hh</text>
</a>
</g>
</g>
<!-- Node1&#45;&gt;Node15 -->
<g id="edge14" class="edge">
<title>Node1&#45;&gt;Node15</title>
<path fill="none" stroke="midnightblue" d="M669.92,-126.24C674.99,-117.64 682.71,-104.57 689.11,-93.72"/>
<polygon fill="midnightblue" stroke="midnightblue" points="692.09,-95.55 694.16,-85.16 686.07,-91.99 692.09,-95.55"/>
</g>
<!-- Node16 -->
<g id="node16" class="node">
<title>Node16</title>
<g id="a_node16"><a xlink:href="logger_8hh.html" target="_top" xlink:title=" ">
<polygon fill="white" stroke="black" points="1136.6,-63.5 1136.6,-83.5 1194.3,-83.5 1194.3,-63.5 1136.6,-63.5"/>
<text text-anchor="middle" x="1165.45" y="-70.5" font-family="Helvetica,sans-Serif" font-size="10.00">logger.hh</text>
</a>
</g>
</g>
<!-- Node1&#45;&gt;Node16 -->
<g id="edge18" class="edge">
<title>Node1&#45;&gt;Node16</title>
<path fill="none" stroke="midnightblue" d="M699.99,-135.6C778.52,-135.05 972.27,-129.42 1128.45,-90 1130.72,-89.43 1133.03,-88.74 1135.33,-87.97"/>
<polygon fill="midnightblue" stroke="midnightblue" points="1136.33,-91.34 1144.44,-84.52 1133.85,-84.79 1136.33,-91.34"/>
</g>
<!-- Node18 -->
<g id="node18" class="node">
<title>Node18</title>
<g id="a_node18"><a xlink:href="uart_8hh.html" target="_top" xlink:title=" ">
<polygon fill="white" stroke="black" points="1071.88,-63.5 1071.88,-83.5 1119.02,-83.5 1119.02,-63.5 1071.88,-63.5"/>
<text text-anchor="middle" x="1095.45" y="-70.5" font-family="Helvetica,sans-Serif" font-size="10.00">uart.hh</text>
</a>
</g>
</g>
<!-- Node1&#45;&gt;Node18 -->
<g id="edge21" class="edge">
<title>Node1&#45;&gt;Node18</title>
<path fill="none" stroke="midnightblue" d="M700,-134.61C769.65,-132.15 928.55,-123.09 1057.45,-90 1059.86,-89.38 1062.32,-88.64 1064.77,-87.83"/>
<polygon fill="midnightblue" stroke="midnightblue" points="1065.72,-91.21 1073.87,-84.44 1063.28,-84.65 1065.72,-91.21"/>
</g>
<!-- Node15&#45;&gt;Node6 -->
<g id="edge17" class="edge">
<title>Node15&#45;&gt;Node6</title>
<path fill="none" stroke="midnightblue" d="M679.65,-63.14C674.7,-61.03 669.42,-58.86 664.45,-57 631.71,-44.74 593.98,-32.75 565.65,-24.16"/>
<polygon fill="midnightblue" stroke="midnightblue" points="566.93,-20.89 556.35,-21.36 564.92,-27.59 566.93,-20.89"/>
</g>
<!-- Node15&#45;&gt;Node10 -->
<g id="edge15" class="edge">
<title>Node15&#45;&gt;Node10</title>
<path fill="none" stroke="midnightblue" d="M719.53,-63.15C724.9,-60.83 730.81,-58.57 736.45,-57 844.27,-27.02 977.44,-16.42 1037.46,-12.99"/>
<polygon fill="midnightblue" stroke="midnightblue" points="1037.48,-16.5 1047.28,-12.46 1037.1,-9.51 1037.48,-16.5"/>
</g>
<!-- Node15&#45;&gt;Node12 -->
<g id="edge16" class="edge">
<title>Node15&#45;&gt;Node12</title>
<path fill="none" stroke="midnightblue" d="M709.26,-63.24C717.86,-54.19 731.17,-40.19 741.77,-29.04"/>
<polygon fill="midnightblue" stroke="midnightblue" points="744.16,-31.61 748.52,-21.95 739.09,-26.78 744.16,-31.61"/>
</g>
<!-- Node16&#45;&gt;Node10 -->
<g id="edge20" class="edge">
<title>Node16&#45;&gt;Node10</title>
<path fill="none" stroke="midnightblue" d="M1150.87,-63.24C1135.72,-53.61 1111.74,-38.37 1093.72,-26.92"/>
<polygon fill="midnightblue" stroke="midnightblue" points="1095.76,-24.07 1085.45,-21.66 1092.01,-29.98 1095.76,-24.07"/>
</g>
<!-- Node17 -->
<g id="node17" class="node">
<title>Node17</title>
<g id="a_node17"><a xlink:title=" ">
<polygon fill="white" stroke="#bfbfbf" points="1138.28,-0.5 1138.28,-20.5 1192.62,-20.5 1192.62,-0.5 1138.28,-0.5"/>
<text text-anchor="middle" x="1165.45" y="-7.5" font-family="Helvetica,sans-Serif" font-size="10.00">iostream</text>
</a>
</g>
</g>
<!-- Node16&#45;&gt;Node17 -->
<g id="edge19" class="edge">
<title>Node16&#45;&gt;Node17</title>
<path fill="none" stroke="midnightblue" d="M1165.45,-63.24C1165.45,-54.99 1165.45,-42.65 1165.45,-32.08"/>
<polygon fill="midnightblue" stroke="midnightblue" points="1168.95,-32.37 1165.45,-22.37 1161.95,-32.37 1168.95,-32.37"/>
</g>
<!-- Node18&#45;&gt;Node10 -->
<g id="edge22" class="edge">
<title>Node18&#45;&gt;Node10</title>
<path fill="none" stroke="midnightblue" d="M1091.5,-63.24C1087.91,-54.82 1082.5,-42.11 1077.93,-31.4"/>
<polygon fill="midnightblue" stroke="midnightblue" points="1081.17,-30.07 1074.03,-22.24 1074.73,-32.82 1081.17,-30.07"/>
</g>
</g>
</svg>
