<?xml version="1.0" encoding="UTF-8" standalone="no"?>
<!DOCTYPE svg PUBLIC "-//W3C//DTD SVG 1.1//EN"
 "http://www.w3.org/Graphics/SVG/1.1/DTD/svg11.dtd">
<!-- Generated by graphviz version 12.1.1 (20240910.0053)
 -->
<!-- Title: src/vision.hh Pages: 1 -->
<svg width="233pt" height="86pt"
 viewBox="0.00 0.00 232.76 86.00" xmlns="http://www.w3.org/2000/svg" xmlns:xlink="http://www.w3.org/1999/xlink">
<g id="graph0" class="graph" transform="scale(1 1) rotate(0) translate(4 82)">
<title>src/vision.hh</title>
<polygon fill="white" stroke="none" points="-4,4 -4,-82 228.76,-82 228.76,4 -4,4"/>
<!-- Node1 -->
<g id="node1" class="node">
<title>Node1</title>
<g id="a_node1"><a xlink:title=" ">
<polygon fill="#bfbfbf" stroke="black" points="46.44,-57.5 46.44,-77.5 118.01,-77.5 118.01,-57.5 46.44,-57.5"/>
<text text-anchor="middle" x="82.23" y="-64.5" font-family="Helvetica,sans-Serif" font-size="10.00">src/vision.hh</text>
</a>
</g>
</g>
<!-- Node2 -->
<g id="node2" class="node">
<title>Node2</title>
<g id="a_node2"><a xlink:title=" ">
<polygon fill="white" stroke="#bfbfbf" points="0,-0.5 0,-20.5 40.45,-20.5 40.45,-0.5 0,-0.5"/>
<text text-anchor="middle" x="20.23" y="-7.5" font-family="Helvetica,sans-Serif" font-size="10.00">string</text>
</a>
</g>
</g>
<!-- Node1&#45;&gt;Node2 -->
<g id="edge1" class="edge">
<title>Node1&#45;&gt;Node2</title>
<path fill="none" stroke="midnightblue" d="M71.71,-57.17C62.75,-49.22 49.65,-37.6 38.91,-28.08"/>
<polygon fill="midnightblue" stroke="midnightblue" points="41.52,-25.71 31.72,-21.7 36.88,-30.95 41.52,-25.71"/>
</g>
<!-- Node3 -->
<g id="node3" class="node">
<title>Node3</title>
<g id="a_node3"><a xlink:title=" ">
<polygon fill="white" stroke="#bfbfbf" points="58.94,-0.5 58.94,-20.5 105.51,-20.5 105.51,-0.5 58.94,-0.5"/>
<text text-anchor="middle" x="82.23" y="-7.5" font-family="Helvetica,sans-Serif" font-size="10.00">chrono</text>
</a>
</g>
</g>
<!-- Node1&#45;&gt;Node3 -->
<g id="edge2" class="edge">
<title>Node1&#45;&gt;Node3</title>
<path fill="none" stroke="midnightblue" d="M82.23,-57.42C82.23,-50.53 82.23,-40.8 82.23,-32.06"/>
<polygon fill="midnightblue" stroke="midnightblue" points="85.73,-32.29 82.23,-22.29 78.73,-32.29 85.73,-32.29"/>
</g>
<!-- Node4 -->
<g id="node4" class="node">
<title>Node4</title>
<g id="a_node4"><a xlink:title=" ">
<polygon fill="white" stroke="#bfbfbf" points="123.69,-0.5 123.69,-20.5 224.76,-20.5 224.76,-0.5 123.69,-0.5"/>
<text text-anchor="middle" x="174.23" y="-7.5" font-family="Helvetica,sans-Serif" font-size="10.00">opencv2/aruco.hpp</text>
</a>
</g>
</g>
<!-- Node1&#45;&gt;Node4 -->
<g id="edge3" class="edge">
<title>Node1&#45;&gt;Node4</title>
<path fill="none" stroke="midnightblue" d="M97.83,-57.17C111.84,-48.79 132.66,-36.35 149.03,-26.56"/>
<polygon fill="midnightblue" stroke="midnightblue" points="150.46,-29.79 157.24,-21.65 146.87,-23.78 150.46,-29.79"/>
</g>
</g>
</svg>
