<?xml version="1.0" encoding="UTF-8" standalone="no"?>
<!DOCTYPE svg PUBLIC "-//W3C//DTD SVG 1.1//EN"
 "http://www.w3.org/Graphics/SVG/1.1/DTD/svg11.dtd">
<!-- Generated by graphviz version 12.1.1 (20240910.0053)
 -->
<!-- Title: src/vision.hh Pages: 1 -->
<svg width="164pt" height="86pt"
 viewBox="0.00 0.00 163.51 86.00" xmlns="http://www.w3.org/2000/svg" xmlns:xlink="http://www.w3.org/1999/xlink">
<g id="graph0" class="graph" transform="scale(1 1) rotate(0) translate(4 82)">
<title>src/vision.hh</title>
<polygon fill="white" stroke="none" points="-4,4 -4,-82 159.51,-82 159.51,4 -4,4"/>
<!-- Node1 -->
<g id="node1" class="node">
<title>Node1</title>
<g id="a_node1"><a xlink:title=" ">
<polygon fill="#bfbfbf" stroke="black" points="40.49,-57.5 40.49,-77.5 112.07,-77.5 112.07,-57.5 40.49,-57.5"/>
<text text-anchor="middle" x="76.28" y="-64.5" font-family="Helvetica,sans-Serif" font-size="10.00">src/vision.hh</text>
</a>
</g>
</g>
<!-- Node2 -->
<g id="node2" class="node">
<title>Node2</title>
<g id="a_node2"><a xlink:href="main_8cc.html" target="_top" xlink:title=" ">
<polygon fill="white" stroke="black" points="0,-0.5 0,-20.5 66.56,-20.5 66.56,-0.5 0,-0.5"/>
<text text-anchor="middle" x="33.28" y="-7.5" font-family="Helvetica,sans-Serif" font-size="10.00">src/main.cc</text>
</a>
</g>
</g>
<!-- Node1&#45;&gt;Node2 -->
<g id="edge1" class="edge">
<title>Node1&#45;&gt;Node2</title>
<path fill="none" stroke="midnightblue" d="M62.26,-48.56C55.01,-39.29 46.46,-28.36 40.54,-20.78"/>
<polygon fill="midnightblue" stroke="midnightblue" points="59.33,-50.5 68.25,-56.23 64.85,-46.19 59.33,-50.5"/>
</g>
<!-- Node3 -->
<g id="node3" class="node">
<title>Node3</title>
<g id="a_node3"><a xlink:href="vision_8cc.html" target="_top" xlink:title=" ">
<polygon fill="white" stroke="black" points="85.05,-0.5 85.05,-20.5 155.51,-20.5 155.51,-0.5 85.05,-0.5"/>
<text text-anchor="middle" x="120.28" y="-7.5" font-family="Helvetica,sans-Serif" font-size="10.00">src/vision.cc</text>
</a>
</g>
</g>
<!-- Node1&#45;&gt;Node3 -->
<g id="edge2" class="edge">
<title>Node1&#45;&gt;Node3</title>
<path fill="none" stroke="midnightblue" d="M90.63,-48.56C98.05,-39.29 106.8,-28.36 112.86,-20.78"/>
<polygon fill="midnightblue" stroke="midnightblue" points="88.01,-46.24 84.49,-56.24 93.47,-50.61 88.01,-46.24"/>
</g>
</g>
</svg>
